<?xml version="1.0" encoding="UTF-8" standalone="no"?>
<!DOCTYPE svg PUBLIC "-//W3C//DTD SVG 1.1//EN"
 "http://www.w3.org/Graphics/SVG/1.1/DTD/svg11.dtd">
<!-- Generated by graphviz version 2.30.1 (20130722.1640)
 -->
<!-- Title: cpl::borrow&lt; T &gt; Pages: 1 -->
<svg width="179pt" height="84pt"
 viewBox="0.00 0.00 179.00 84.00" xmlns="http://www.w3.org/2000/svg" xmlns:xlink="http://www.w3.org/1999/xlink">
<g id="graph0" class="graph" transform="scale(1 1) rotate(0) translate(4 80)">
<title>cpl::borrow&lt; T &gt;</title>
<polygon fill="white" stroke="white" points="-4,5 -4,-80 176,-80 176,5 -4,5"/>
<!-- Node1 -->
<g id="node1" class="node"><title>Node1</title>
<polygon fill="#bfbfbf" stroke="black" points="37,-56.5 37,-75.5 133,-75.5 133,-56.5 37,-56.5"/>
<text text-anchor="middle" x="85" y="-63.5" font-family="Sans-Serif" font-size="10.00">cpl::borrow&lt; T &gt;</text>
</g>
<!-- Node2 -->
<g id="node2" class="node"><title>Node2</title>
<g id="a_node2"><a xlink:href="classcpl_1_1ptr.html" target="_top" xlink:title="A pointer for data whose lifetime is determined elsewhere.">
<polygon fill="white" stroke="black" points="-0.5,-0.5 -0.5,-19.5 76.5,-19.5 76.5,-0.5 -0.5,-0.5"/>
<text text-anchor="middle" x="38" y="-7.5" font-family="Sans-Serif" font-size="10.00">cpl::ptr&lt; T &gt;</text>
</a>
</g>
</g>
<!-- Node1&#45;&gt;Node2 -->
<g id="edge1" class="edge"><title>Node1&#45;&gt;Node2</title>
<path fill="none" stroke="midnightblue" d="M70.5792,-48.4314C62.3419,-38.9673 52.3461,-27.4827 45.6167,-19.7511"/>
<polygon fill="midnightblue" stroke="midnightblue" points="68.0336,-50.8378 77.2389,-56.083 73.3137,-46.2421 68.0336,-50.8378"/>
</g>
<!-- Node3 -->
<g id="node3" class="node"><title>Node3</title>
<g id="a_node3"><a xlink:href="classcpl_1_1ref.html" target="_top" xlink:title="A reference for data whose lifetime is determined elsewhere.">
<polygon fill="white" stroke="black" points="94.5,-0.5 94.5,-19.5 171.5,-19.5 171.5,-0.5 94.5,-0.5"/>
<text text-anchor="middle" x="133" y="-7.5" font-family="Sans-Serif" font-size="10.00">cpl::ref&lt; T &gt;</text>
</a>
</g>
</g>
<!-- Node1&#45;&gt;Node3 -->
<g id="edge2" class="edge"><title>Node1&#45;&gt;Node3</title>
<path fill="none" stroke="midnightblue" d="M99.7277,-48.4314C108.14,-38.9673 118.349,-27.4827 125.221,-19.7511"/>
<polygon fill="midnightblue" stroke="midnightblue" points="96.954,-46.2836 92.9262,-56.083 102.186,-50.9342 96.954,-46.2836"/>
</g>
</g>
</svg>
