<?xml version="1.0" encoding="UTF-8" standalone="no"?>
<!DOCTYPE svg PUBLIC "-//W3C//DTD SVG 1.1//EN"
 "http://www.w3.org/Graphics/SVG/1.1/DTD/svg11.dtd">
<!-- Generated by graphviz version 2.30.1 (20130722.1640)
 -->
<!-- Title: cpl::uptr&lt; T &gt; Pages: 1 -->
<svg width="122pt" height="140pt"
 viewBox="0.00 0.00 122.00 140.00" xmlns="http://www.w3.org/2000/svg" xmlns:xlink="http://www.w3.org/1999/xlink">
<g id="graph0" class="graph" transform="scale(1 1) rotate(0) translate(4 136)">
<title>cpl::uptr&lt; T &gt;</title>
<polygon fill="white" stroke="white" points="-4,5 -4,-136 119,-136 119,5 -4,5"/>
<!-- Node1 -->
<g id="node1" class="node"><title>Node1</title>
<polygon fill="#bfbfbf" stroke="black" points="15.5,-0.5 15.5,-19.5 98.5,-19.5 98.5,-0.5 15.5,-0.5"/>
<text text-anchor="middle" x="57" y="-7.5" font-family="Sans-Serif" font-size="10.00">cpl::uptr&lt; T &gt;</text>
</g>
<!-- Node2 -->
<g id="node2" class="node"><title>Node2</title>
<g id="a_node2"><a xlink:href="classcpl_1_1unique.html" target="_top" xlink:title="An indirection that deletes the data when it is deleted.">
<polygon fill="white" stroke="black" points="9,-56.5 9,-75.5 105,-75.5 105,-56.5 9,-56.5"/>
<text text-anchor="middle" x="57" y="-63.5" font-family="Sans-Serif" font-size="10.00">cpl::unique&lt; T &gt;</text>
</a>
</g>
</g>
<!-- Node2&#45;&gt;Node1 -->
<g id="edge1" class="edge"><title>Node2&#45;&gt;Node1</title>
<path fill="none" stroke="midnightblue" d="M57,-45.8045C57,-36.9102 57,-26.7798 57,-19.7511"/>
<polygon fill="midnightblue" stroke="midnightblue" points="53.5001,-46.083 57,-56.083 60.5001,-46.083 53.5001,-46.083"/>
</g>
<!-- Node3 -->
<g id="node3" class="node"><title>Node3</title>
<g id="a_node3"><a xlink:title="STL class.">
<polygon fill="white" stroke="#bfbfbf" points="-1,-112.5 -1,-131.5 115,-131.5 115,-112.5 -1,-112.5"/>
<text text-anchor="middle" x="57" y="-119.5" font-family="Sans-Serif" font-size="10.00">std::unique_ptr&lt; T &gt;</text>
</a>
</g>
</g>
<!-- Node3&#45;&gt;Node2 -->
<g id="edge2" class="edge"><title>Node3&#45;&gt;Node2</title>
<path fill="none" stroke="midnightblue" d="M57,-101.805C57,-92.9102 57,-82.7798 57,-75.7511"/>
<polygon fill="midnightblue" stroke="midnightblue" points="53.5001,-102.083 57,-112.083 60.5001,-102.083 53.5001,-102.083"/>
</g>
</g>
</svg>
