<?xml version="1.0" encoding="UTF-8" standalone="no"?>
<!DOCTYPE svg PUBLIC "-//W3C//DTD SVG 1.1//EN"
 "http://www.w3.org/Graphics/SVG/1.1/DTD/svg11.dtd">
<!-- Generated by graphviz version 2.30.1 (20130722.1640)
 -->
<!-- Title: cpl::unique&lt; T &gt; Pages: 1 -->
<svg width="191pt" height="140pt"
 viewBox="0.00 0.00 191.00 140.00" xmlns="http://www.w3.org/2000/svg" xmlns:xlink="http://www.w3.org/1999/xlink">
<g id="graph0" class="graph" transform="scale(1 1) rotate(0) translate(4 136)">
<title>cpl::unique&lt; T &gt;</title>
<polygon fill="white" stroke="white" points="-4,5 -4,-136 188,-136 188,5 -4,5"/>
<!-- Node1 -->
<g id="node1" class="node"><title>Node1</title>
<polygon fill="#bfbfbf" stroke="black" points="43,-56.5 43,-75.5 139,-75.5 139,-56.5 43,-56.5"/>
<text text-anchor="middle" x="91" y="-63.5" font-family="Sans-Serif" font-size="10.00">cpl::unique&lt; T &gt;</text>
</g>
<!-- Node3 -->
<g id="node3" class="node"><title>Node3</title>
<g id="a_node3"><a xlink:href="classcpl_1_1uptr.html" target="_top" xlink:title="A pointer that deletes the data when it is deleted.">
<polygon fill="white" stroke="black" points="-0.5,-0.5 -0.5,-19.5 82.5,-19.5 82.5,-0.5 -0.5,-0.5"/>
<text text-anchor="middle" x="41" y="-7.5" font-family="Sans-Serif" font-size="10.00">cpl::uptr&lt; T &gt;</text>
</a>
</g>
</g>
<!-- Node1&#45;&gt;Node3 -->
<g id="edge2" class="edge"><title>Node1&#45;&gt;Node3</title>
<path fill="none" stroke="midnightblue" d="M75.9237,-48.7175C67.1109,-39.1997 56.3341,-27.5608 49.1028,-19.7511"/>
<polygon fill="midnightblue" stroke="midnightblue" points="73.3812,-51.1233 82.7435,-56.083 78.5176,-46.3674 73.3812,-51.1233"/>
</g>
<!-- Node4 -->
<g id="node4" class="node"><title>Node4</title>
<g id="a_node4"><a xlink:href="classcpl_1_1uref.html" target="_top" xlink:title="A reference that deletes the data when it is deleted.">
<polygon fill="white" stroke="black" points="100.5,-0.5 100.5,-19.5 183.5,-19.5 183.5,-0.5 100.5,-0.5"/>
<text text-anchor="middle" x="142" y="-7.5" font-family="Sans-Serif" font-size="10.00">cpl::uref&lt; T &gt;</text>
</a>
</g>
</g>
<!-- Node1&#45;&gt;Node4 -->
<g id="edge3" class="edge"><title>Node1&#45;&gt;Node4</title>
<path fill="none" stroke="midnightblue" d="M106.378,-48.7175C115.367,-39.1997 126.359,-27.5608 133.735,-19.7511"/>
<polygon fill="midnightblue" stroke="midnightblue" points="103.743,-46.4096 99.4216,-56.083 108.832,-51.216 103.743,-46.4096"/>
</g>
<!-- Node2 -->
<g id="node2" class="node"><title>Node2</title>
<g id="a_node2"><a xlink:title="STL class.">
<polygon fill="white" stroke="#bfbfbf" points="33,-112.5 33,-131.5 149,-131.5 149,-112.5 33,-112.5"/>
<text text-anchor="middle" x="91" y="-119.5" font-family="Sans-Serif" font-size="10.00">std::unique_ptr&lt; T &gt;</text>
</a>
</g>
</g>
<!-- Node2&#45;&gt;Node1 -->
<g id="edge1" class="edge"><title>Node2&#45;&gt;Node1</title>
<path fill="none" stroke="midnightblue" d="M91,-101.805C91,-92.9102 91,-82.7798 91,-75.7511"/>
<polygon fill="midnightblue" stroke="midnightblue" points="87.5001,-102.083 91,-112.083 94.5001,-102.083 87.5001,-102.083"/>
</g>
</g>
</svg>
