<?xml version="1.0" encoding="UTF-8" standalone="no"?>
<!DOCTYPE svg PUBLIC "-//W3C//DTD SVG 1.1//EN"
 "http://www.w3.org/Graphics/SVG/1.1/DTD/svg11.dtd">
<!-- Generated by graphviz version 2.30.1 (20130722.1640)
 -->
<!-- Title: Graph Legend Pages: 1 -->
<svg width="541pt" height="164pt"
 viewBox="0.00 0.00 541.00 164.00" xmlns="http://www.w3.org/2000/svg" xmlns:xlink="http://www.w3.org/1999/xlink">
<g id="graph0" class="graph" transform="scale(1 1) rotate(0) translate(4 160)">
<title>Graph Legend</title>
<polygon fill="white" stroke="white" points="-4,5 -4,-160 538,-160 538,5 -4,5"/>
<!-- Node9 -->
<g id="node1" class="node"><title>Node9</title>
<polygon fill="#bfbfbf" stroke="black" points="308.25,-19.5 249.75,-19.5 249.75,-0.5 308.25,-0.5 308.25,-19.5"/>
<text text-anchor="middle" x="279" y="-7.5" font-family="Sans-Serif" font-size="10.00">Inherited</text>
</g>
<!-- Node10 -->
<g id="node2" class="node"><title>Node10</title>
<g id="a_node2"><a xlink:href="$classPublicBase.html" xlink:title="PublicBase">
<polygon fill="none" stroke="black" points="68,-87.5 0,-87.5 0,-68.5 68,-68.5 68,-87.5"/>
<text text-anchor="middle" x="34" y="-75.5" font-family="Sans-Serif" font-size="10.00">PublicBase</text>
</a>
</g>
</g>
<!-- Node10&#45;&gt;Node9 -->
<g id="edge1" class="edge"><title>Node10&#45;&gt;Node9</title>
<path fill="none" stroke="midnightblue" d="M75.7801,-65.7449C125.248,-52.4189 206.366,-30.5667 249.641,-18.9089"/>
<polygon fill="midnightblue" stroke="midnightblue" points="74.7748,-62.3909 66.0295,-68.3717 76.5957,-69.15 74.7748,-62.3909"/>
</g>
<!-- Node11 -->
<g id="node3" class="node"><title>Node11</title>
<g id="a_node3"><a xlink:href="$classTruncated.html" xlink:title="Truncated">
<polygon fill="none" stroke="red" points="66,-155.5 2,-155.5 2,-136.5 66,-136.5 66,-155.5"/>
<text text-anchor="middle" x="34" y="-143.5" font-family="Sans-Serif" font-size="10.00">Truncated</text>
</a>
</g>
</g>
<!-- Node11&#45;&gt;Node10 -->
<g id="edge2" class="edge"><title>Node11&#45;&gt;Node10</title>
<path fill="none" stroke="midnightblue" d="M34,-126.041C34,-113.472 34,-97.5631 34,-87.8411"/>
<polygon fill="midnightblue" stroke="midnightblue" points="30.5001,-126.372 34,-136.372 37.5001,-126.372 30.5001,-126.372"/>
</g>
<!-- Node13 -->
<g id="node4" class="node"><title>Node13</title>
<g id="a_node4"><a xlink:href="$classProtectedBase.html" xlink:title="ProtectedBase">
<polygon fill="none" stroke="black" points="173.25,-87.5 86.75,-87.5 86.75,-68.5 173.25,-68.5 173.25,-87.5"/>
<text text-anchor="middle" x="130" y="-75.5" font-family="Sans-Serif" font-size="10.00">ProtectedBase</text>
</a>
</g>
</g>
<!-- Node13&#45;&gt;Node9 -->
<g id="edge3" class="edge"><title>Node13&#45;&gt;Node9</title>
<path fill="none" stroke="darkgreen" d="M158.883,-64.2063C188.533,-51.0724 233.858,-30.9957 259.516,-19.6305"/>
<polygon fill="darkgreen" stroke="darkgreen" points="157.205,-61.1215 149.479,-68.3717 160.04,-67.5217 157.205,-61.1215"/>
</g>
<!-- Node14 -->
<g id="node5" class="node"><title>Node14</title>
<g id="a_node5"><a xlink:href="$classPrivateBase.html" xlink:title="PrivateBase">
<polygon fill="none" stroke="black" points="266,-87.5 192,-87.5 192,-68.5 266,-68.5 266,-87.5"/>
<text text-anchor="middle" x="229" y="-75.5" font-family="Sans-Serif" font-size="10.00">PrivateBase</text>
</a>
</g>
</g>
<!-- Node14&#45;&gt;Node9 -->
<g id="edge4" class="edge"><title>Node14&#45;&gt;Node9</title>
<path fill="none" stroke="#8b1a1a" d="M241.644,-60.3101C251.391,-47.4437 264.486,-30.1583 272.302,-19.8411"/>
<polygon fill="#8b1a1a" stroke="#8b1a1a" points="238.785,-58.2872 235.537,-68.3717 244.365,-62.5142 238.785,-58.2872"/>
</g>
<!-- Node15 -->
<g id="node6" class="node"><title>Node15</title>
<polygon fill="none" stroke="#bfbfbf" points="375.25,-87.5 284.75,-87.5 284.75,-68.5 375.25,-68.5 375.25,-87.5"/>
<text text-anchor="middle" x="330" y="-75.5" font-family="Sans-Serif" font-size="10.00">Undocumented</text>
</g>
<!-- Node15&#45;&gt;Node9 -->
<g id="edge5" class="edge"><title>Node15&#45;&gt;Node9</title>
<path fill="none" stroke="midnightblue" d="M317.103,-60.3101C307.161,-47.4437 293.804,-30.1583 285.832,-19.8411"/>
<polygon fill="midnightblue" stroke="midnightblue" points="314.449,-62.5989 323.333,-68.3717 319.988,-58.3187 314.449,-62.5989"/>
</g>
<!-- Node16 -->
<g id="node7" class="node"><title>Node16</title>
<g id="a_node7"><a xlink:href="$classTempl.html" xlink:title="Templ&lt; int &gt;">
<polygon fill="none" stroke="black" points="474,-87.5 394,-87.5 394,-68.5 474,-68.5 474,-87.5"/>
<text text-anchor="middle" x="434" y="-75.5" font-family="Sans-Serif" font-size="10.00">Templ&lt; int &gt;</text>
</a>
</g>
</g>
<!-- Node16&#45;&gt;Node9 -->
<g id="edge6" class="edge"><title>Node16&#45;&gt;Node9</title>
<path fill="none" stroke="midnightblue" d="M404.356,-64.3772C373.52,-51.2472 326.076,-31.0452 299.269,-19.6305"/>
<polygon fill="midnightblue" stroke="midnightblue" points="403.165,-67.6741 413.736,-68.3717 405.907,-61.2337 403.165,-67.6741"/>
</g>
<!-- Node17 -->
<g id="node8" class="node"><title>Node17</title>
<g id="a_node8"><a xlink:href="$classTempl.html" xlink:title="Templ&lt; T &gt;">
<polygon fill="none" stroke="black" points="470.25,-155.5 397.75,-155.5 397.75,-136.5 470.25,-136.5 470.25,-155.5"/>
<text text-anchor="middle" x="434" y="-143.5" font-family="Sans-Serif" font-size="10.00">Templ&lt; T &gt;</text>
</a>
</g>
</g>
<!-- Node17&#45;&gt;Node16 -->
<g id="edge7" class="edge"><title>Node17&#45;&gt;Node16</title>
<path fill="none" stroke="orange" stroke-dasharray="5,2" d="M434,-126.041C434,-113.472 434,-97.5631 434,-87.8411"/>
<polygon fill="orange" stroke="orange" points="430.5,-126.372 434,-136.372 437.5,-126.372 430.5,-126.372"/>
<text text-anchor="middle" x="451.5" y="-109.5" font-family="Sans-Serif" font-size="10.00">&lt; int &gt;</text>
</g>
<!-- Node18 -->
<g id="node9" class="node"><title>Node18</title>
<g id="a_node9"><a xlink:href="$classUsed.html" xlink:title="Used">
<polygon fill="none" stroke="black" points="533.25,-87.5 492.75,-87.5 492.75,-68.5 533.25,-68.5 533.25,-87.5"/>
<text text-anchor="middle" x="513" y="-75.5" font-family="Sans-Serif" font-size="10.00">Used</text>
</a>
</g>
</g>
<!-- Node18&#45;&gt;Node9 -->
<g id="edge8" class="edge"><title>Node18&#45;&gt;Node9</title>
<path fill="none" stroke="#9a32cd" stroke-dasharray="5,2" d="M483.294,-68.0853C483.196,-68.0568 483.098,-68.0284 483,-68 421.011,-50.0433 348.14,-29.9184 308.441,-19.0373"/>
<polygon fill="#9a32cd" stroke="#9a32cd" points="482.101,-71.3825 492.682,-70.8478 484.077,-64.6671 482.101,-71.3825"/>
<text text-anchor="middle" x="448" y="-41.5" font-family="Sans-Serif" font-size="10.00">m_usedClass</text>
</g>
</g>
</svg>
