<?xml version="1.0" encoding="UTF-8" standalone="no"?>
<!DOCTYPE svg PUBLIC "-//W3C//DTD SVG 1.1//EN"
 "http://www.w3.org/Graphics/SVG/1.1/DTD/svg11.dtd">
<!-- Generated by graphviz version 2.30.1 (20130722.1640)
 -->
<!-- Title: Graphical Class Hierarchy Pages: 1 -->
<svg width="218pt" height="66pt"
 viewBox="0.00 0.00 218.00 66.00" xmlns="http://www.w3.org/2000/svg" xmlns:xlink="http://www.w3.org/1999/xlink">
<g id="graph0" class="graph" transform="scale(1 1) rotate(0) translate(4 62)">
<title>Graphical Class Hierarchy</title>
<polygon fill="white" stroke="white" points="-4,5 -4,-62 215,-62 215,5 -4,5"/>
<!-- Node1 -->
<g id="node1" class="node"><title>Node1</title>
<g id="a_node1"><a xlink:href="classcpl_1_1borrow.html" target="_top" xlink:title="An indirection for data whose lifetime is determined elsewhere.">
<polygon fill="white" stroke="black" points="0,-19.5 0,-38.5 96,-38.5 96,-19.5 0,-19.5"/>
<text text-anchor="middle" x="48" y="-26.5" font-family="Sans-Serif" font-size="10.00">cpl::borrow&lt; T &gt;</text>
</a>
</g>
</g>
<!-- Node2 -->
<g id="node2" class="node"><title>Node2</title>
<g id="a_node2"><a xlink:href="classcpl_1_1ptr.html" target="_top" xlink:title="A pointer for data whose lifetime is determined elsewhere.">
<polygon fill="white" stroke="black" points="132.5,-38.5 132.5,-57.5 209.5,-57.5 209.5,-38.5 132.5,-38.5"/>
<text text-anchor="middle" x="171" y="-45.5" font-family="Sans-Serif" font-size="10.00">cpl::ptr&lt; T &gt;</text>
</a>
</g>
</g>
<!-- Node1&#45;&gt;Node2 -->
<g id="edge1" class="edge"><title>Node1&#45;&gt;Node2</title>
<path fill="none" stroke="midnightblue" d="M106.05,-37.9582C114.911,-39.3496 123.871,-40.7565 132.166,-42.0591"/>
<polygon fill="midnightblue" stroke="midnightblue" points="106.55,-34.494 96.1282,-36.4003 105.464,-41.4093 106.55,-34.494"/>
</g>
<!-- Node3 -->
<g id="node3" class="node"><title>Node3</title>
<g id="a_node3"><a xlink:href="classcpl_1_1ref.html" target="_top" xlink:title="A reference for data whose lifetime is determined elsewhere.">
<polygon fill="white" stroke="black" points="132.5,-0.5 132.5,-19.5 209.5,-19.5 209.5,-0.5 132.5,-0.5"/>
<text text-anchor="middle" x="171" y="-7.5" font-family="Sans-Serif" font-size="10.00">cpl::ref&lt; T &gt;</text>
</a>
</g>
</g>
<!-- Node1&#45;&gt;Node3 -->
<g id="edge2" class="edge"><title>Node1&#45;&gt;Node3</title>
<path fill="none" stroke="midnightblue" d="M106.05,-20.0418C114.911,-18.6504 123.871,-17.2435 132.166,-15.9409"/>
<polygon fill="midnightblue" stroke="midnightblue" points="105.464,-16.5907 96.1282,-21.5997 106.55,-23.506 105.464,-16.5907"/>
</g>
</g>
</svg>
