<?xml version="1.0" encoding="UTF-8" standalone="no"?>
<!DOCTYPE svg PUBLIC "-//W3C//DTD SVG 1.1//EN"
 "http://www.w3.org/Graphics/SVG/1.1/DTD/svg11.dtd">
<!-- Generated by graphviz version 2.30.1 (20130722.1640)
 -->
<!-- Title: Graphical Class Hierarchy Pages: 1 -->
<svg width="330pt" height="66pt"
 viewBox="0.00 0.00 330.00 66.00" xmlns="http://www.w3.org/2000/svg" xmlns:xlink="http://www.w3.org/1999/xlink">
<g id="graph0" class="graph" transform="scale(1 1) rotate(0) translate(4 62)">
<title>Graphical Class Hierarchy</title>
<polygon fill="white" stroke="white" points="-4,5 -4,-62 327,-62 327,5 -4,5"/>
<!-- Node1 -->
<g id="node1" class="node"><title>Node1</title>
<polygon fill="white" stroke="#bfbfbf" points="0,-19.5 0,-38.5 68,-38.5 68,-19.5 0,-19.5"/>
<text text-anchor="middle" x="34" y="-26.5" font-family="Sans-Serif" font-size="10.00">shared_ptr</text>
</g>
<!-- Node2 -->
<g id="node2" class="node"><title>Node2</title>
<g id="a_node2"><a xlink:href="classcpl_1_1shared.html" target="_top" xlink:title="An indirection that uses reference counting.">
<polygon fill="white" stroke="black" points="104.5,-19.5 104.5,-38.5 201.5,-38.5 201.5,-19.5 104.5,-19.5"/>
<text text-anchor="middle" x="153" y="-26.5" font-family="Sans-Serif" font-size="10.00">cpl::shared&lt; T &gt;</text>
</a>
</g>
</g>
<!-- Node1&#45;&gt;Node2 -->
<g id="edge1" class="edge"><title>Node1&#45;&gt;Node2</title>
<path fill="none" stroke="midnightblue" d="M78.2722,-29C86.7471,-29 95.6802,-29 104.29,-29"/>
<polygon fill="midnightblue" stroke="midnightblue" points="78.2146,-25.5001 68.2145,-29 78.2145,-32.5001 78.2146,-25.5001"/>
</g>
<!-- Node3 -->
<g id="node3" class="node"><title>Node3</title>
<g id="a_node3"><a xlink:href="classcpl_1_1sptr.html" target="_top" xlink:title="A pointer that uses reference counting.">
<polygon fill="white" stroke="black" points="238.5,-38.5 238.5,-57.5 321.5,-57.5 321.5,-38.5 238.5,-38.5"/>
<text text-anchor="middle" x="280" y="-45.5" font-family="Sans-Serif" font-size="10.00">cpl::sptr&lt; T &gt;</text>
</a>
</g>
</g>
<!-- Node2&#45;&gt;Node3 -->
<g id="edge2" class="edge"><title>Node2&#45;&gt;Node3</title>
<path fill="none" stroke="midnightblue" d="M211.713,-37.7723C220.744,-39.1451 229.909,-40.5382 238.448,-41.8362"/>
<polygon fill="midnightblue" stroke="midnightblue" points="212.026,-34.2799 201.614,-36.2373 210.974,-41.2004 212.026,-34.2799"/>
</g>
<!-- Node4 -->
<g id="node4" class="node"><title>Node4</title>
<g id="a_node4"><a xlink:href="classcpl_1_1sref.html" target="_top" xlink:title="A reference that uses reference counting.">
<polygon fill="white" stroke="black" points="239,-0.5 239,-19.5 321,-19.5 321,-0.5 239,-0.5"/>
<text text-anchor="middle" x="280" y="-7.5" font-family="Sans-Serif" font-size="10.00">cpl::sref&lt; T &gt;</text>
</a>
</g>
</g>
<!-- Node2&#45;&gt;Node4 -->
<g id="edge3" class="edge"><title>Node2&#45;&gt;Node4</title>
<path fill="none" stroke="midnightblue" d="M211.534,-20.2548C220.764,-18.8518 230.14,-17.4267 238.849,-16.103"/>
<polygon fill="midnightblue" stroke="midnightblue" points="210.974,-16.7996 201.614,-21.7627 212.026,-23.7201 210.974,-16.7996"/>
</g>
</g>
</svg>
