<?xml version="1.0" encoding="UTF-8" standalone="no"?>
<!DOCTYPE svg PUBLIC "-//W3C//DTD SVG 1.1//EN"
 "http://www.w3.org/Graphics/SVG/1.1/DTD/svg11.dtd">
<!-- Generated by graphviz version 2.30.1 (20130722.1640)
 -->
<!-- Title: Graphical Class Hierarchy Pages: 1 -->
<svg width="376pt" height="66pt"
 viewBox="0.00 0.00 376.00 66.00" xmlns="http://www.w3.org/2000/svg" xmlns:xlink="http://www.w3.org/1999/xlink">
<g id="graph0" class="graph" transform="scale(1 1) rotate(0) translate(4 62)">
<title>Graphical Class Hierarchy</title>
<polygon fill="white" stroke="white" points="-4,5 -4,-62 373,-62 373,5 -4,5"/>
<!-- Node1 -->
<g id="node1" class="node"><title>Node1</title>
<g id="a_node1"><a xlink:title="STL class.">
<polygon fill="white" stroke="#bfbfbf" points="0,-19.5 0,-38.5 116,-38.5 116,-19.5 0,-19.5"/>
<text text-anchor="middle" x="58" y="-26.5" font-family="Sans-Serif" font-size="10.00">std::unique_ptr&lt; T &gt;</text>
</a>
</g>
</g>
<!-- Node2 -->
<g id="node2" class="node"><title>Node2</title>
<g id="a_node2"><a xlink:href="classcpl_1_1unique.html" target="_top" xlink:title="An indirection that deletes the data when it is deleted.">
<polygon fill="white" stroke="black" points="152,-19.5 152,-38.5 248,-38.5 248,-19.5 152,-19.5"/>
<text text-anchor="middle" x="200" y="-26.5" font-family="Sans-Serif" font-size="10.00">cpl::unique&lt; T &gt;</text>
</a>
</g>
</g>
<!-- Node1&#45;&gt;Node2 -->
<g id="edge1" class="edge"><title>Node1&#45;&gt;Node2</title>
<path fill="none" stroke="midnightblue" d="M126.373,-29C134.961,-29 143.601,-29 151.776,-29"/>
<polygon fill="midnightblue" stroke="midnightblue" points="126.347,-25.5001 116.347,-29 126.347,-32.5001 126.347,-25.5001"/>
</g>
<!-- Node3 -->
<g id="node3" class="node"><title>Node3</title>
<g id="a_node3"><a xlink:href="classcpl_1_1uptr.html" target="_top" xlink:title="A pointer that deletes the data when it is deleted.">
<polygon fill="white" stroke="black" points="284.5,-38.5 284.5,-57.5 367.5,-57.5 367.5,-38.5 284.5,-38.5"/>
<text text-anchor="middle" x="326" y="-45.5" font-family="Sans-Serif" font-size="10.00">cpl::uptr&lt; T &gt;</text>
</a>
</g>
</g>
<!-- Node2&#45;&gt;Node3 -->
<g id="edge2" class="edge"><title>Node2&#45;&gt;Node3</title>
<path fill="none" stroke="midnightblue" d="M258.136,-37.7547C266.992,-39.1117 275.981,-40.4891 284.375,-41.7752"/>
<polygon fill="midnightblue" stroke="midnightblue" points="258.648,-34.2923 248.233,-36.2373 257.587,-41.2116 258.648,-34.2923"/>
</g>
<!-- Node4 -->
<g id="node4" class="node"><title>Node4</title>
<g id="a_node4"><a xlink:href="classcpl_1_1uref.html" target="_top" xlink:title="A reference that deletes the data when it is deleted.">
<polygon fill="white" stroke="black" points="284.5,-0.5 284.5,-19.5 367.5,-19.5 367.5,-0.5 284.5,-0.5"/>
<text text-anchor="middle" x="326" y="-7.5" font-family="Sans-Serif" font-size="10.00">cpl::uref&lt; T &gt;</text>
</a>
</g>
</g>
<!-- Node2&#45;&gt;Node4 -->
<g id="edge3" class="edge"><title>Node2&#45;&gt;Node4</title>
<path fill="none" stroke="midnightblue" d="M258.136,-20.2453C266.992,-18.8883 275.981,-17.5109 284.375,-16.2248"/>
<polygon fill="midnightblue" stroke="midnightblue" points="257.587,-16.7884 248.233,-21.7627 258.648,-23.7077 257.587,-16.7884"/>
</g>
</g>
</svg>
