<?xml version="1.0" encoding="UTF-8" standalone="no"?>
<!DOCTYPE svg PUBLIC "-//W3C//DTD SVG 1.1//EN"
 "http://www.w3.org/Graphics/SVG/1.1/DTD/svg11.dtd">
<!-- Generated by graphviz version 2.30.1 (20130722.1640)
 -->
<!-- Title: cpl::wptr&lt; T &gt; Pages: 1 -->
<svg width="116pt" height="154pt"
 viewBox="0.00 0.00 116.00 154.00" xmlns="http://www.w3.org/2000/svg" xmlns:xlink="http://www.w3.org/1999/xlink">
<g id="graph0" class="graph" transform="scale(1 1) rotate(0) translate(4 150)">
<title>cpl::wptr&lt; T &gt;</title>
<polygon fill="white" stroke="white" points="-4,5 -4,-150 113,-150 113,5 -4,5"/>
<!-- Node1 -->
<g id="node1" class="node"><title>Node1</title>
<polygon fill="#bfbfbf" stroke="black" points="12,-0.5 12,-19.5 96,-19.5 96,-0.5 12,-0.5"/>
<text text-anchor="middle" x="54" y="-7.5" font-family="Sans-Serif" font-size="10.00">cpl::wptr&lt; T &gt;</text>
</g>
<!-- Node2 -->
<g id="node2" class="node"><title>Node2</title>
<g id="a_node2"><a xlink:title="STL class.">
<polygon fill="white" stroke="#bfbfbf" points="0,-58.5 0,-77.5 108,-77.5 108,-58.5 0,-58.5"/>
<text text-anchor="middle" x="54" y="-65.5" font-family="Sans-Serif" font-size="10.00">std::weak_ptr&lt; T &gt;</text>
</a>
</g>
</g>
<!-- Node2&#45;&gt;Node1 -->
<g id="edge1" class="edge"><title>Node2&#45;&gt;Node1</title>
<path fill="none" stroke="midnightblue" d="M54,-47.953C54,-38.2875 54,-27.0312 54,-19.5052"/>
<polygon fill="midnightblue" stroke="midnightblue" points="50.5001,-48.25 54,-58.25 57.5001,-48.25 50.5001,-48.25"/>
</g>
<!-- Node3 -->
<g id="node3" class="node"><title>Node3</title>
<polygon fill="white" stroke="#bfbfbf" points="39.5,-126.5 39.5,-145.5 68.5,-145.5 68.5,-126.5 39.5,-126.5"/>
<text text-anchor="middle" x="54" y="-133.5" font-family="Sans-Serif" font-size="10.00">T</text>
</g>
<!-- Node3&#45;&gt;Node2 -->
<g id="edge2" class="edge"><title>Node3&#45;&gt;Node2</title>
<path fill="none" stroke="#9a32cd" stroke-dasharray="5,2" d="M54,-116.041C54,-103.472 54,-87.5631 54,-77.8411"/>
<polygon fill="#9a32cd" stroke="#9a32cd" points="50.5001,-116.372 54,-126.372 57.5001,-116.372 50.5001,-116.372"/>
<text text-anchor="middle" x="62.5" y="-99.5" font-family="Sans-Serif" font-size="10.00"> ptr</text>
</g>
</g>
</svg>
