<?xml version="1.0" encoding="UTF-8" standalone="no"?>
<!DOCTYPE svg PUBLIC "-//W3C//DTD SVG 1.1//EN"
 "http://www.w3.org/Graphics/SVG/1.1/DTD/svg11.dtd">
<!-- Generated by graphviz version 2.30.1 (20130722.1640)
 -->
<!-- Title: test::Foo Pages: 1 -->
<svg width="153pt" height="164pt"
 viewBox="0.00 0.00 153.00 164.00" xmlns="http://www.w3.org/2000/svg" xmlns:xlink="http://www.w3.org/1999/xlink">
<g id="graph0" class="graph" transform="scale(1 1) rotate(0) translate(4 160)">
<title>test::Foo</title>
<polygon fill="white" stroke="white" points="-4,5 -4,-160 150,-160 150,5 -4,5"/>
<!-- Node1 -->
<g id="node1" class="node"><title>Node1</title>
<polygon fill="#bfbfbf" stroke="black" points="34.5,-0.5 34.5,-19.5 93.5,-19.5 93.5,-0.5 34.5,-0.5"/>
<text text-anchor="middle" x="64" y="-7.5" font-family="Sans-Serif" font-size="10.00">test::Foo</text>
</g>
<!-- Node2 -->
<g id="node2" class="node"><title>Node2</title>
<g id="a_node2"><a xlink:href="classcpl_1_1set.html" target="_top" xlink:title="cpl::set\&lt; const Foo * \&gt;">
<polygon fill="white" stroke="black" points="0,-68.5 0,-87.5 128,-87.5 128,-68.5 0,-68.5"/>
<text text-anchor="middle" x="64" y="-75.5" font-family="Sans-Serif" font-size="10.00">cpl::set&lt; const Foo * &gt;</text>
</a>
</g>
</g>
<!-- Node2&#45;&gt;Node1 -->
<g id="edge1" class="edge"><title>Node2&#45;&gt;Node1</title>
<path fill="none" stroke="#9a32cd" stroke-dasharray="5,2" d="M64,-58.0413C64,-45.4724 64,-29.5631 64,-19.8411"/>
<polygon fill="#9a32cd" stroke="#9a32cd" points="60.5001,-58.3716 64,-68.3717 67.5001,-58.3717 60.5001,-58.3716"/>
<text text-anchor="middle" x="93.5" y="-41.5" font-family="Sans-Serif" font-size="10.00"> live_objects</text>
</g>
<!-- Node3 -->
<g id="node3" class="node"><title>Node3</title>
<g id="a_node3"><a xlink:href="classcpl_1_1set.html" target="_top" xlink:title="A set of values.">
<polygon fill="white" stroke="black" points="12,-136.5 12,-155.5 116,-155.5 116,-136.5 12,-136.5"/>
<text text-anchor="middle" x="64" y="-143.5" font-family="Sans-Serif" font-size="10.00">cpl::set&lt; T, C, A &gt;</text>
</a>
</g>
</g>
<!-- Node3&#45;&gt;Node2 -->
<g id="edge2" class="edge"><title>Node3&#45;&gt;Node2</title>
<path fill="none" stroke="orange" stroke-dasharray="5,2" d="M64,-126.041C64,-113.472 64,-97.5631 64,-87.8411"/>
<polygon fill="orange" stroke="orange" points="60.5001,-126.372 64,-136.372 67.5001,-126.372 60.5001,-126.372"/>
<text text-anchor="middle" x="104.5" y="-109.5" font-family="Sans-Serif" font-size="10.00"> &lt; const Foo * &gt;</text>
</g>
</g>
</svg>
