<?xml version="1.0" encoding="UTF-8" standalone="no"?>
<!DOCTYPE svg PUBLIC "-//W3C//DTD SVG 1.1//EN"
 "http://www.w3.org/Graphics/SVG/1.1/DTD/svg11.dtd">
<!-- Generated by graphviz version 2.30.1 (20130722.1640)
 -->
<!-- Title: test::Bar Pages: 1 -->
<svg width="153pt" height="222pt"
 viewBox="0.00 0.00 153.00 222.00" xmlns="http://www.w3.org/2000/svg" xmlns:xlink="http://www.w3.org/1999/xlink">
<g id="graph0" class="graph" transform="scale(1 1) rotate(0) translate(4 218)">
<title>test::Bar</title>
<polygon fill="white" stroke="white" points="-4,5 -4,-218 150,-218 150,5 -4,5"/>
<!-- Node1 -->
<g id="node1" class="node"><title>Node1</title>
<polygon fill="#bfbfbf" stroke="black" points="35,-0.5 35,-19.5 93,-19.5 93,-0.5 35,-0.5"/>
<text text-anchor="middle" x="64" y="-7.5" font-family="Sans-Serif" font-size="10.00">test::Bar</text>
</g>
<!-- Node2 -->
<g id="node2" class="node"><title>Node2</title>
<g id="a_node2"><a xlink:href="structtest_1_1Foo.html" target="_top" xlink:title="A sample data type to refer to in the tests.">
<polygon fill="white" stroke="black" points="34.5,-58.5 34.5,-77.5 93.5,-77.5 93.5,-58.5 34.5,-58.5"/>
<text text-anchor="middle" x="64" y="-65.5" font-family="Sans-Serif" font-size="10.00">test::Foo</text>
</a>
</g>
</g>
<!-- Node2&#45;&gt;Node1 -->
<g id="edge1" class="edge"><title>Node2&#45;&gt;Node1</title>
<path fill="none" stroke="midnightblue" d="M64,-47.953C64,-38.2875 64,-27.0312 64,-19.5052"/>
<polygon fill="midnightblue" stroke="midnightblue" points="60.5001,-48.25 64,-58.25 67.5001,-48.25 60.5001,-48.25"/>
</g>
<!-- Node3 -->
<g id="node3" class="node"><title>Node3</title>
<g id="a_node3"><a xlink:href="classcpl_1_1set.html" target="_top" xlink:title="cpl::set\&lt; const Foo * \&gt;">
<polygon fill="white" stroke="black" points="0,-126.5 0,-145.5 128,-145.5 128,-126.5 0,-126.5"/>
<text text-anchor="middle" x="64" y="-133.5" font-family="Sans-Serif" font-size="10.00">cpl::set&lt; const Foo * &gt;</text>
</a>
</g>
</g>
<!-- Node3&#45;&gt;Node2 -->
<g id="edge2" class="edge"><title>Node3&#45;&gt;Node2</title>
<path fill="none" stroke="#9a32cd" stroke-dasharray="5,2" d="M64,-116.041C64,-103.472 64,-87.5631 64,-77.8411"/>
<polygon fill="#9a32cd" stroke="#9a32cd" points="60.5001,-116.372 64,-126.372 67.5001,-116.372 60.5001,-116.372"/>
<text text-anchor="middle" x="93.5" y="-99.5" font-family="Sans-Serif" font-size="10.00"> live_objects</text>
</g>
<!-- Node4 -->
<g id="node4" class="node"><title>Node4</title>
<g id="a_node4"><a xlink:href="classcpl_1_1set.html" target="_top" xlink:title="A set of values.">
<polygon fill="white" stroke="black" points="12,-194.5 12,-213.5 116,-213.5 116,-194.5 12,-194.5"/>
<text text-anchor="middle" x="64" y="-201.5" font-family="Sans-Serif" font-size="10.00">cpl::set&lt; T, C, A &gt;</text>
</a>
</g>
</g>
<!-- Node4&#45;&gt;Node3 -->
<g id="edge3" class="edge"><title>Node4&#45;&gt;Node3</title>
<path fill="none" stroke="orange" stroke-dasharray="5,2" d="M64,-184.041C64,-171.472 64,-155.563 64,-145.841"/>
<polygon fill="orange" stroke="orange" points="60.5001,-184.372 64,-194.372 67.5001,-184.372 60.5001,-184.372"/>
<text text-anchor="middle" x="104.5" y="-167.5" font-family="Sans-Serif" font-size="10.00"> &lt; const Foo * &gt;</text>
</g>
</g>
</svg>
